<?xml version="1.0" standalone="yes"?>

<svg version="1.1" viewBox="0.0 0.0 518.0 550.0" fill="none" stroke="none" stroke-linecap="square" stroke-miterlimit="10" xmlns="http://www.w3.org/2000/svg" xmlns:xlink="http://www.w3.org/1999/xlink"><clipPath id="p.0"><path d="m0 0l518.0 0l0 550.0l-518.0 0l0 -550.0z" clip-rule="nonzero"></path></clipPath><g clip-path="url(#p.0)"><path fill="#ffffff" d="m0 0l518.7953 0l0 550.09186l-518.7953 0z" fill-rule="nonzero"></path><path fill="#ffffff" d="m62.089237 91.83576l0 0c0 -30.928562 25.07256 -56.001118 56.001125 -56.001118l282.98987 0c14.8524475 0 29.096527 5.9001007 39.598785 16.402351c10.502258 10.502247 16.402344 24.74635 16.402344 39.598766l0 223.99777c0 30.928558 -25.07254 56.00113 -56.00113 56.00113l-282.98987 0c-30.928566 0 -56.001125 -25.07257 -56.001125 -56.00113z" fill-rule="nonzero"></path><path stroke="#000000" stroke-width="2.0" stroke-linejoin="round" stroke-linecap="butt" d="m62.089237 91.83576l0 0c0 -30.928562 25.07256 -56.001118 56.001125 -56.001118l282.98987 0c14.8524475 0 29.096527 5.9001007 39.598785 16.402351c10.502258 10.502247 16.402344 24.74635 16.402344 39.598766l0 223.99777c0 30.928558 -25.07254 56.00113 -56.00113 56.00113l-282.98987 0c-30.928566 0 -56.001125 -25.07257 -56.001125 -56.00113z" fill-rule="nonzero"></path><path fill="#cfe2f3" d="m109.58662 125.49903l0 0c0 -9.497749 7.6994476 -17.197197 17.19719 -17.197197l277.29065 0c4.560974 0 8.93515 1.8118439 12.160248 5.0369415c3.2250977 3.2251053 5.036957 7.5992737 5.036957 12.160255l0 68.78672c0 9.497742 -7.699463 17.19719 -17.197205 17.19719l-277.29065 0c-9.497742 0 -17.19719 -7.6994476 -17.19719 -17.19719z" fill-rule="nonzero"></path><path stroke="#000000" stroke-width="2.0" stroke-linejoin="round" stroke-linecap="butt" d="m109.58662 125.49903l0 0c0 -9.497749 7.6994476 -17.197197 17.19719 -17.197197l277.29065 0c4.560974 0 8.93515 1.8118439 12.160248 5.0369415c3.2250977 3.2251053 5.036957 7.5992737 5.036957 12.160255l0 68.78672c0 9.497742 -7.699463 17.19719 -17.197205 17.19719l-277.29065 0c-9.497742 0 -17.19719 -7.6994476 -17.19719 -17.19719z" fill-rule="nonzero"></path><path fill="#000000" d="m361.14377 188.03793l0 -1.609375l5.765625 0l0 5.046875q-1.328125 1.0625 -2.75 1.59375q-1.40625 0.53125 -2.890625 0.53125q-2.0 0 -3.640625 -0.859375q-1.625 -0.859375 -2.46875 -2.484375q-0.828125 -1.625 -0.828125 -3.625q0 -1.984375 0.828125 -3.703125q0.828125 -1.71875 2.390625 -2.546875q1.5625 -0.84375 3.59375 -0.84375q1.46875 0 2.65625 0.484375q1.203125 0.46875 1.875 1.328125q0.671875 0.84375 1.03125 2.21875l-1.625 0.4375q-0.3125 -1.03125 -0.765625 -1.625q-0.453125 -0.59375 -1.296875 -0.953125q-0.84375 -0.359375 -1.875 -0.359375q-1.234375 0 -2.140625 0.375q-0.890625 0.375 -1.453125 1.0q-0.546875 0.609375 -0.84375 1.34375q-0.53125 1.25 -0.53125 2.734375q0 1.8125 0.625 3.046875q0.640625 1.21875 1.828125 1.8125q1.203125 0.59375 2.546875 0.59375q1.171875 0 2.28125 -0.453125q1.109375 -0.453125 1.6875 -0.953125l0 -2.53125l-4.0 0zm14.683319 2.15625l1.71875 0.21875q-0.40625 1.5 -1.515625 2.34375q-1.09375 0.828125 -2.8125 0.828125q-2.15625 0 -3.421875 -1.328125q-1.265625 -1.328125 -1.265625 -3.734375q0 -2.484375 1.265625 -3.859375q1.28125 -1.375 3.328125 -1.375q1.984375 0 3.234375 1.34375q1.25 1.34375 1.25 3.796875q0 0.140625 -0.015625 0.4375l-7.34375 0q0.09375 1.625 0.921875 2.484375q0.828125 0.859375 2.0625 0.859375q0.90625 0 1.546875 -0.46875q0.65625 -0.484375 1.046875 -1.546875zm-5.484375 -2.703125l5.5 0q-0.109375 -1.234375 -0.625 -1.859375q-0.796875 -0.96875 -2.078125 -0.96875q-1.140625 0 -1.9375 0.78125q-0.78125 0.765625 -0.859375 2.046875zm15.547577 2.265625l1.640625 0.21875q-0.265625 1.6875 -1.375 2.65625q-1.109375 0.953125 -2.734375 0.953125q-2.015625 0 -3.25 -1.3125q-1.21875 -1.328125 -1.21875 -3.796875q0 -1.59375 0.515625 -2.78125q0.53125 -1.203125 1.609375 -1.796875q1.09375 -0.609375 2.359375 -0.609375q1.609375 0 2.625 0.8125q1.015625 0.8125 1.3125 2.3125l-1.625 0.25q-0.234375 -1.0 -0.828125 -1.5q-0.59375 -0.5 -1.421875 -0.5q-1.265625 0 -2.0625 0.90625q-0.78125 0.90625 -0.78125 2.859375q0 1.984375 0.765625 2.890625q0.765625 0.890625 1.984375 0.890625q0.984375 0 1.640625 -0.59375q0.65625 -0.609375 0.84375 -1.859375zm2.90625 3.609375l0 -13.59375l1.671875 0l0 7.75l3.953125 -4.015625l2.15625 0l-3.765625 3.65625l4.140625 6.203125l-2.0625 0l-3.25 -5.03125l-1.171875 1.125l0 3.90625l-1.671875 0zm8.6875 -4.921875q0 -2.734375 1.53125 -4.0625q1.265625 -1.09375 3.09375 -1.09375q2.03125 0 3.3125 1.34375q1.296875 1.328125 1.296875 3.671875q0 1.90625 -0.578125 3.0q-0.5625 1.078125 -1.65625 1.6875q-1.078125 0.59375 -2.375 0.59375q-2.0625 0 -3.34375 -1.328125q-1.28125 -1.328125 -1.28125 -3.8125zm1.71875 0q0 1.890625 0.828125 2.828125q0.828125 0.9375 2.078125 0.9375q1.25 0 2.0625 -0.9375q0.828125 -0.953125 0.828125 -2.890625q0 -1.828125 -0.828125 -2.765625q-0.828125 -0.9375 -2.0625 -0.9375q-1.25 0 -2.078125 0.9375q-0.828125 0.9375 -0.828125 2.828125z" fill-rule="nonzero"></path><path fill="#cfe2f3" d="m135.58661 157.77704l0 0c0 -3.8356323 3.1093903 -6.9450226 6.9450226 -6.9450226l176.78712 0c1.8419495 0 3.608429 0.7317047 4.9108887 2.0341492c1.3024292 1.3024445 2.0341492 3.0689392 2.0341492 4.9108734l0 27.779251c0 3.8356323 -3.1094055 6.9450226 -6.945038 6.9450226l-176.78712 0c-3.8356323 0 -6.9450226 -3.1093903 -6.9450226 -6.9450226z" fill-rule="nonzero"></path><path stroke="#000000" stroke-width="2.0" stroke-linejoin="round" stroke-linecap="butt" d="m135.58661 157.77704l0 0c0 -3.8356323 3.1093903 -6.9450226 6.9450226 -6.9450226l176.78712 0c1.8419495 0 3.608429 0.7317047 4.9108887 2.0341492c1.3024292 1.3024445 2.0341492 3.0689392 2.0341492 4.9108734l0 27.779251c0 3.8356323 -3.1094055 6.9450226 -6.945038 6.9450226l-176.78712 0c-3.8356323 0 -6.9450226 -3.1093903 -6.9450226 -6.9450226z" fill-rule="nonzero"></path><path fill="#000000" d="m189.3002 177.52667l0 -8.296875l1.265625 0l0 1.25q0.484375 -0.875 0.890625 -1.15625q0.40625 -0.28125 0.90625 -0.28125q0.703125 0 1.4375 0.453125l-0.484375 1.296875q-0.515625 -0.296875 -1.03125 -0.296875q-0.453125 0 -0.828125 0.28125q-0.359375 0.265625 -0.515625 0.765625q-0.234375 0.75 -0.234375 1.640625l0 4.34375l-1.40625 0zm5.34375 -9.84375l0 -1.609375l1.40625 0l0 1.609375l-1.40625 0zm0 9.84375l0 -8.296875l1.40625 0l0 8.296875l-1.40625 0zm3.5234375 0l0 -11.453125l1.40625 0l0 11.453125l-1.40625 0zm2.2734375 3.1875l0 -1.015625l9.328125 0l0 1.015625l-9.328125 0zm11.7421875 -3.1875l-2.546875 -8.296875l1.453125 0l1.328125 4.78125l0.484375 1.78125q0.03125 -0.125 0.4375 -1.703125l1.3125 -4.859375l1.453125 0l1.234375 4.8125l0.421875 1.578125l0.46875 -1.59375l1.421875 -4.796875l1.375 0l-2.59375 8.296875l-1.46875 0l-1.3125 -4.96875l-0.328125 -1.421875l-1.671875 6.390625l-1.46875 0zm9.4921875 -4.15625q0 -2.296875 1.28125 -3.40625q1.078125 -0.921875 2.609375 -0.921875q1.71875 0 2.796875 1.125q1.09375 1.109375 1.09375 3.09375q0 1.59375 -0.484375 2.515625q-0.484375 0.921875 -1.40625 1.4375q-0.90625 0.5 -2.0 0.5q-1.734375 0 -2.8125 -1.109375q-1.078125 -1.125 -1.078125 -3.234375zm1.453125 0q0 1.59375 0.6875 2.390625q0.703125 0.796875 1.75 0.796875q1.046875 0 1.734375 -0.796875q0.703125 -0.796875 0.703125 -2.4375q0 -1.53125 -0.703125 -2.328125q-0.6875 -0.796875 -1.734375 -0.796875q-1.046875 0 -1.75 0.796875q-0.6875 0.78125 -0.6875 2.375zm7.9609375 4.15625l0 -8.296875l1.265625 0l0 1.25q0.484375 -0.875 0.890625 -1.15625q0.40625 -0.28125 0.90625 -0.28125q0.703125 0 1.4375 0.453125l-0.484375 1.296875q-0.515625 -0.296875 -1.03125 -0.296875q-0.453125 0 -0.828125 0.28125q-0.359375 0.265625 -0.515625 0.765625q-0.234375 0.75 -0.234375 1.640625l0 4.34375l-1.40625 0zm5.34375 0l0 -11.453125l1.40625 0l0 6.53125l3.328125 -3.375l1.828125 0l-3.171875 3.078125l3.484375 5.21875l-1.734375 0l-2.734375 -4.25l-1.0 0.953125l0 3.296875l-1.40625 0zm13.671875 -2.671875l1.453125 0.171875q-0.34375 1.28125 -1.28125 1.984375q-0.921875 0.703125 -2.359375 0.703125q-1.828125 0 -2.890625 -1.125q-1.0625 -1.125 -1.0625 -3.140625q0 -2.09375 1.078125 -3.25q1.078125 -1.15625 2.796875 -1.15625q1.65625 0 2.703125 1.140625q1.0625 1.125 1.0625 3.171875q0 0.125 0 0.375l-6.1875 0q0.078125 1.375 0.765625 2.109375q0.703125 0.71875 1.734375 0.71875q0.78125 0 1.328125 -0.40625q0.546875 -0.40625 0.859375 -1.296875zm-4.609375 -2.28125l4.625 0q-0.09375 -1.046875 -0.53125 -1.5625q-0.671875 -0.8125 -1.734375 -0.8125q-0.96875 0 -1.640625 0.65625q-0.65625 0.640625 -0.71875 1.71875zm7.8203125 4.953125l0 -8.296875l1.265625 0l0 1.25q0.484375 -0.875 0.890625 -1.15625q0.40625 -0.28125 0.90625 -0.28125q0.703125 0 1.4375 0.453125l-0.484375 1.296875q-0.515625 -0.296875 -1.03125 -0.296875q-0.453125 0 -0.828125 0.28125q-0.359375 0.265625 -0.515625 0.765625q-0.234375 0.75 -0.234375 1.640625l0 4.34375l-1.40625 0zm5.734375 0l0 -1.609375l1.609375 0l0 1.609375l-1.609375 0zm4.0390625 -9.828125l0 -1.625l1.40625 0l0 1.625l-1.40625 0zm-1.78125 13.046875l0.265625 -1.1875q0.421875 0.109375 0.671875 0.109375q0.421875 0 0.625 -0.296875q0.21875 -0.28125 0.21875 -1.421875l0 -8.71875l1.40625 0l0 8.75q0 1.53125 -0.390625 2.140625q-0.515625 0.78125 -1.6875 0.78125q-0.578125 0 -1.109375 -0.15625zm4.7890625 -5.703125l1.390625 -0.21875q0.109375 0.84375 0.640625 1.296875q0.546875 0.4375 1.5 0.4375q0.96875 0 1.4375 -0.390625q0.46875 -0.40625 0.46875 -0.9375q0 -0.46875 -0.40625 -0.75q-0.296875 -0.1875 -1.4375 -0.46875q-1.546875 -0.390625 -2.15625 -0.671875q-0.59375 -0.296875 -0.90625 -0.796875q-0.296875 -0.5 -0.296875 -1.109375q0 -0.5625 0.25 -1.03125q0.25 -0.46875 0.6875 -0.78125q0.328125 -0.25 0.890625 -0.40625q0.578125 -0.171875 1.21875 -0.171875q0.984375 0 1.71875 0.28125q0.734375 0.28125 1.078125 0.765625q0.359375 0.46875 0.5 1.28125l-1.375 0.1875q-0.09375 -0.640625 -0.546875 -1.0q-0.453125 -0.359375 -1.265625 -0.359375q-0.96875 0 -1.390625 0.328125q-0.40625 0.3125 -0.40625 0.734375q0 0.28125 0.171875 0.5q0.171875 0.21875 0.53125 0.375q0.21875 0.078125 1.25 0.359375q1.484375 0.390625 2.078125 0.65625q0.59375 0.25 0.921875 0.734375q0.34375 0.484375 0.34375 1.203125q0 0.703125 -0.421875 1.328125q-0.40625 0.609375 -1.1875 0.953125q-0.765625 0.34375 -1.734375 0.34375q-1.625 0 -2.46875 -0.671875q-0.84375 -0.671875 -1.078125 -2.0z" fill-rule="nonzero"></path><path fill="#ffe599" d="m135.58136 239.31772l0 0c0 -3.835617 3.1093903 -6.9450226 6.9450226 -6.9450226l176.78712 0c1.8419495 0 3.608429 0.73172 4.9108887 2.0341644c1.3024292 1.3024292 2.0341492 3.068924 2.0341492 4.910858l0 27.779266c0 3.8356323 -3.1094055 6.9450073 -6.945038 6.9450073l-176.78712 0c-3.8356323 0 -6.9450226 -3.109375 -6.9450226 -6.9450073z" fill-rule="nonzero"></path><path stroke="#000000" stroke-width="2.0" stroke-linejoin="round" stroke-linecap="butt" d="m135.58136 239.31772l0 0c0 -3.835617 3.1093903 -6.9450226 6.9450226 -6.9450226l176.78712 0c1.8419495 0 3.608429 0.73172 4.9108887 2.0341644c1.3024292 1.3024292 2.0341492 3.068924 2.0341492 4.910858l0 27.779266c0 3.8356323 -3.1094055 6.9450073 -6.945038 6.9450073l-176.78712 0c-3.8356323 0 -6.9450226 -3.109375 -6.9450226 -6.9450073z" fill-rule="nonzero"></path><path fill="#000000" d="m221.29886 259.06735l0 -8.296875l1.265625 0l0 1.25q0.484375 -0.875 0.890625 -1.15625q0.40625 -0.28125 0.90625 -0.28125q0.703125 0 1.4375 0.453125l-0.484375 1.296875q-0.515625 -0.296875 -1.03125 -0.296875q-0.453125 0 -0.828125 0.28125q-0.359375 0.265625 -0.515625 0.765625q-0.234375 0.75 -0.234375 1.640625l0 4.34375l-1.40625 0zm5.34375 -9.84375l0 -1.609375l1.40625 0l0 1.609375l-1.40625 0zm0 9.84375l0 -8.296875l1.40625 0l0 8.296875l-1.40625 0zm3.5234375 0l0 -11.453125l1.40625 0l0 11.453125l-1.40625 0zm8.9609375 0l0 -1.046875q-0.78125 1.234375 -2.3125 1.234375q-1.0 0 -1.828125 -0.546875q-0.828125 -0.546875 -1.296875 -1.53125q-0.453125 -0.984375 -0.453125 -2.25q0 -1.25 0.40625 -2.25q0.421875 -1.015625 1.25 -1.546875q0.828125 -0.546875 1.859375 -0.546875q0.75 0 1.328125 0.3125q0.59375 0.3125 0.953125 0.828125l0 -4.109375l1.40625 0l0 11.453125l-1.3125 0zm-4.4375 -4.140625q0 1.59375 0.671875 2.390625q0.671875 0.78125 1.578125 0.78125q0.921875 0 1.5625 -0.75q0.65625 -0.765625 0.65625 -2.3125q0 -1.703125 -0.65625 -2.5q-0.65625 -0.796875 -1.625 -0.796875q-0.9375 0 -1.5625 0.765625q-0.625 0.765625 -0.625 2.421875z" fill-rule="nonzero"></path><path fill="#e06666" d="m135.58661 315.01065l0 0c0 -3.8356323 3.1093903 -6.945038 6.9450226 -6.945038l176.78712 0c1.8419495 0 3.608429 0.73172 4.9108887 2.0341492c1.3024292 1.3024597 2.0341492 3.0689392 2.0341492 4.9108887l0 27.779236c0 3.8356323 -3.1094055 6.9450073 -6.945038 6.9450073l-176.78712 0c-3.8356323 0 -6.9450226 -3.109375 -6.9450226 -6.9450073z" fill-rule="nonzero"></path><path stroke="#000000" stroke-width="2.0" stroke-linejoin="round" stroke-linecap="butt" d="m135.58661 315.01065l0 0c0 -3.8356323 3.1093903 -6.945038 6.9450226 -6.945038l176.78712 0c1.8419495 0 3.608429 0.73172 4.9108887 2.0341492c1.3024292 1.3024597 2.0341492 3.0689392 2.0341492 4.9108887l0 27.779236c0 3.8356323 -3.1094055 6.9450073 -6.945038 6.9450073l-176.78712 0c-3.8356323 0 -6.9450226 -3.109375 -6.9450226 -6.9450073z" fill-rule="nonzero"></path><path fill="#000000" d="m205.31192 334.76025l0 -8.296875l1.25 0l0 1.15625q0.390625 -0.609375 1.03125 -0.96875q0.65625 -0.375 1.484375 -0.375q0.921875 0 1.515625 0.390625q0.59375 0.375 0.828125 1.0625q0.984375 -1.453125 2.5625 -1.453125q1.234375 0 1.890625 0.6875q0.671875 0.671875 0.671875 2.09375l0 5.703125l-1.390625 0l0 -5.234375q0 -0.84375 -0.140625 -1.203125q-0.140625 -0.375 -0.5 -0.59375q-0.359375 -0.234375 -0.84375 -0.234375q-0.875 0 -1.453125 0.578125q-0.578125 0.578125 -0.578125 1.859375l0 4.828125l-1.40625 0l0 -5.390625q0 -0.9375 -0.34375 -1.40625q-0.34375 -0.46875 -1.125 -0.46875q-0.59375 0 -1.09375 0.3125q-0.5 0.3125 -0.734375 0.921875q-0.21875 0.59375 -0.21875 1.71875l0 4.3125l-1.40625 0zm12.796875 -4.15625q0 -2.296875 1.28125 -3.40625q1.078125 -0.921875 2.609375 -0.921875q1.71875 0 2.796875 1.125q1.09375 1.109375 1.09375 3.09375q0 1.59375 -0.484375 2.515625q-0.484375 0.921875 -1.40625 1.4375q-0.90625 0.5 -2.0 0.5q-1.734375 0 -2.8125 -1.109375q-1.078125 -1.125 -1.078125 -3.234375zm1.453125 0q0 1.59375 0.6875 2.390625q0.703125 0.796875 1.75 0.796875q1.046875 0 1.734375 -0.796875q0.703125 -0.796875 0.703125 -2.4375q0 -1.53125 -0.703125 -2.328125q-0.6875 -0.796875 -1.734375 -0.796875q-1.046875 0 -1.75 0.796875q-0.6875 0.78125 -0.6875 2.375zm13.3515625 4.15625l0 -1.046875q-0.78125 1.234375 -2.3125 1.234375q-1.0 0 -1.828125 -0.546875q-0.828125 -0.546875 -1.296875 -1.53125q-0.453125 -0.984375 -0.453125 -2.25q0 -1.25 0.40625 -2.25q0.421875 -1.015625 1.25 -1.546875q0.828125 -0.546875 1.859375 -0.546875q0.75 0 1.328125 0.3125q0.59375 0.3125 0.953125 0.828125l0 -4.109375l1.40625 0l0 11.453125l-1.3125 0zm-4.4375 -4.140625q0 1.59375 0.671875 2.390625q0.671875 0.78125 1.578125 0.78125q0.921875 0 1.5625 -0.75q0.65625 -0.765625 0.65625 -2.3125q0 -1.703125 -0.65625 -2.5q-0.65625 -0.796875 -1.625 -0.796875q-0.9375 0 -1.5625 0.765625q-0.625 0.765625 -0.625 2.421875zm13.6328125 1.46875l1.453125 0.171875q-0.34375 1.28125 -1.28125 1.984375q-0.921875 0.703125 -2.359375 0.703125q-1.828125 0 -2.890625 -1.125q-1.0625 -1.125 -1.0625 -3.140625q0 -2.09375 1.078125 -3.25q1.078125 -1.15625 2.796875 -1.15625q1.65625 0 2.703125 1.140625q1.0625 1.125 1.0625 3.171875q0 0.125 0 0.375l-6.1875 0q0.078125 1.375 0.765625 2.109375q0.703125 0.71875 1.734375 0.71875q0.78125 0 1.328125 -0.40625q0.546875 -0.40625 0.859375 -1.296875zm-4.609375 -2.28125l4.625 0q-0.09375 -1.046875 -0.53125 -1.5625q-0.671875 -0.8125 -1.734375 -0.8125q-0.96875 0 -1.640625 0.65625q-0.65625 0.640625 -0.71875 1.71875zm7.8359375 4.953125l0 -8.296875l1.25 0l0 1.15625q0.390625 -0.609375 1.03125 -0.96875q0.65625 -0.375 1.484375 -0.375q0.921875 0 1.515625 0.390625q0.59375 0.375 0.828125 1.0625q0.984375 -1.453125 2.5625 -1.453125q1.234375 0 1.890625 0.6875q0.671875 0.671875 0.671875 2.09375l0 5.703125l-1.390625 0l0 -5.234375q0 -0.84375 -0.140625 -1.203125q-0.140625 -0.375 -0.5 -0.59375q-0.359375 -0.234375 -0.84375 -0.234375q-0.875 0 -1.453125 0.578125q-0.578125 0.578125 -0.578125 1.859375l0 4.828125l-1.40625 0l0 -5.390625q0 -0.9375 -0.34375 -1.40625q-0.34375 -0.46875 -1.125 -0.46875q-0.59375 0 -1.09375 0.3125q-0.5 0.3125 -0.734375 0.921875q-0.21875 0.59375 -0.21875 1.71875l0 4.3125l-1.40625 0z" fill-rule="nonzero"></path><path fill="#000000" fill-opacity="0.0" d="m230.9252 192.50131l0 39.874023" fill-rule="nonzero"></path><path stroke="#000000" stroke-width="2.0" stroke-linejoin="round" stroke-linecap="butt" d="m230.9252 204.50131l0 15.874023" fill-rule="evenodd"></path><path fill="#000000" stroke="#000000" stroke-width="2.0" stroke-linecap="butt" d="m234.22867 204.50131l-3.3034668 -9.076202l-3.3034668 9.076202z" fill-rule="evenodd"></path><path fill="#000000" stroke="#000000" stroke-width="2.0" stroke-linecap="butt" d="m227.62173 220.37534l3.3034668 9.076187l3.3034668 -9.076187z" fill-rule="evenodd"></path><path fill="#000000" fill-opacity="0.0" d="m230.91995 274.042l0 34.015747" fill-rule="nonzero"></path><path stroke="#000000" stroke-width="2.0" stroke-linejoin="round" stroke-linecap="butt" d="m230.91995 286.042l0 10.015747" fill-rule="evenodd"></path><path fill="#000000" stroke="#000000" stroke-width="2.0" stroke-linecap="butt" d="m234.22342 286.042l-3.3034668 -9.076202l-3.3034668 9.076202z" fill-rule="evenodd"></path><path fill="#000000" stroke="#000000" stroke-width="2.0" stroke-linecap="butt" d="m227.61649 296.05774l3.3034668 9.076202l3.3034668 -9.076202z" fill-rule="evenodd"></path><path fill="#000000" fill-opacity="0.0" d="m230.9252 349.7349l0 45.763794" fill-rule="nonzero"></path><path stroke="#666666" stroke-width="2.0" stroke-linejoin="round" stroke-linecap="butt" d="m230.9252 361.7349l0 21.763794" fill-rule="evenodd"></path><path fill="#666666" stroke="#666666" stroke-width="2.0" stroke-linecap="butt" d="m234.22867 361.7349l-3.3034668 -9.076172l-3.3034668 9.076172z" fill-rule="evenodd"></path><path fill="#666666" stroke="#666666" stroke-width="2.0" stroke-linecap="butt" d="m227.62173 383.4987l3.3034668 9.076202l3.3034668 -9.076202z" fill-rule="evenodd"></path><path fill="#efefef" d="m122.35089 423.92047l0 0c-2.136589 -8.32309 4.8782578 -16.56247 18.067886 -21.221832c13.189621 -4.659363 30.240845 -4.92157 43.918213 -0.6753845l0 0c4.844925 -4.839386 13.712585 -8.180664 23.920654 -9.013123c10.208084 -0.832489 20.557602 0.9416199 27.91803 4.785675l0 0c4.1272736 -4.387726 12.231232 -7.3356934 21.436172 -7.7978516c9.204956 -0.4621582 18.20816 1.6269226 23.81482 5.5259094l0 0c7.4565125 -4.65094 19.320007 -6.609192 30.457062 -5.027405c11.137085 1.5818176 19.547424 6.419586 21.591827 12.419983l0 0c9.135498 1.3208923 16.745178 4.678772 20.862915 9.206085c4.1177673 4.5272827 4.3396606 9.779907 0.6083679 14.400696l0 0c8.995789 6.2062683 11.100128 14.476013 5.5277405 21.723145c-5.572418 7.2471313 -17.984406 12.382843 -32.604004 13.49057c-0.103027344 6.801697 -7.1401367 13.042847 -18.398926 16.31784c-11.258759 3.274994 -24.98111 3.0724487 -35.877808 -0.52960205c-4.6414185 8.14621 -17.70549 14.140106 -33.548004 15.39212c-15.842529 1.2519836 -31.623444 -2.4623413 -40.52481 -9.538269c-10.911224 3.4877625 -24.003784 4.492462 -36.32425 2.7874756c-12.32048 -1.704956 -22.831055 -5.9759827 -29.160751 -11.84964l0 0c-11.149902 0.6916504 -21.930305 -2.3705444 -26.990952 -7.6667786c-5.0606384 -5.2962646 -3.3242264 -11.699127 4.3474655 -16.030914l0 0c-9.945999 -3.1030579 -15.021042 -9.26059 -12.578705 -15.261688c2.4423447 -6.001068 11.848625 -10.485809 23.313843 -11.115631z" fill-rule="nonzero"></path><path fill="#000000" fill-opacity="0.0" d="m111.395355 450.6186l0 0c4.6935425 1.4643555 10.1156845 2.128601 15.538422 1.903595m7.1026154 21.794617c2.3319702 -0.14465332 4.617752 -0.45098877 6.7983856 -0.9110718m58.68335 9.972839c-1.640152 -1.3038025 -3.013382 -2.6970215 -4.0962677 -4.155945m78.17192 -1.6981201l0 0c0.8461914 -1.485199 1.3944702 -3.0137634 1.6356506 -4.560211m52.639038 -11.227478c0.10971069 -7.2414246 -7.649414 -13.871796 -19.94458 -17.04309m47.0206 -18.16983c-1.9911804 2.4658508 -5.0309143 4.6532593 -8.880859 6.390747m-12.588562 -29.9982l0 0c0.33926392 0.99575806 0.49627686 2.0065002 0.46887207 3.0181885m-52.516907 -10.410461l0 0c-1.8600159 1.1601868 -3.3924255 2.456665 -4.54953 3.8490906m-40.70186 -1.5776672l0 0c-0.99124146 1.053772 -1.73143 2.1688843 -2.2035217 3.31958m-49.63594 0.9079895l0 0c2.8941193 0.898468 5.571579 1.9799194 7.9735565 3.2205505m-69.95885 18.676758l0 0c0.29447937 1.1471558 0.7597656 2.2801514 1.3915176 3.3883972" fill-rule="nonzero"></path><path stroke="#000000" stroke-width="2.0" stroke-linejoin="round" stroke-linecap="butt" d="m122.35089 423.92047l0 0c-2.136589 -8.32309 4.8782578 -16.56247 18.067886 -21.221832c13.189621 -4.659363 30.240845 -4.92157 43.918213 -0.6753845l0 0c4.844925 -4.839386 13.712585 -8.180664 23.920654 -9.013123c10.208084 -0.832489 20.557602 0.9416199 27.91803 4.785675l0 0c4.1272736 -4.387726 12.231232 -7.3356934 21.436172 -7.7978516c9.204956 -0.4621582 18.20816 1.6269226 23.81482 5.5259094l0 0c7.4565125 -4.65094 19.320007 -6.609192 30.457062 -5.027405c11.137085 1.5818176 19.547424 6.419586 21.591827 12.419983l0 0c9.135498 1.3208923 16.745178 4.678772 20.862915 9.206085c4.1177673 4.5272827 4.3396606 9.779907 0.6083679 14.400696l0 0c8.995789 6.2062683 11.100128 14.476013 5.5277405 21.723145c-5.572418 7.2471313 -17.984406 12.382843 -32.604004 13.49057c-0.103027344 6.801697 -7.1401367 13.042847 -18.398926 16.31784c-11.258759 3.274994 -24.98111 3.0724487 -35.877808 -0.52960205c-4.6414185 8.14621 -17.70549 14.140106 -33.548004 15.39212c-15.842529 1.2519836 -31.623444 -2.4623413 -40.52481 -9.538269c-10.911224 3.4877625 -24.003784 4.492462 -36.32425 2.7874756c-12.32048 -1.704956 -22.831055 -5.9759827 -29.160751 -11.84964l0 0c-11.149902 0.6916504 -21.930305 -2.3705444 -26.990952 -7.6667786c-5.0606384 -5.2962646 -3.3242264 -11.699127 4.3474655 -16.030914l0 0c-9.945999 -3.1030579 -15.021042 -9.26059 -12.578705 -15.261688c2.4423447 -6.001068 11.848625 -10.485809 23.313843 -11.115631z" fill-rule="nonzero"></path><path stroke="#000000" stroke-width="2.0" stroke-linejoin="round" stroke-linecap="butt" d="m111.395355 450.6186l0 0c4.6935425 1.4643555 10.1156845 2.128601 15.538422 1.903595m7.1026154 21.794617c2.3319702 -0.14465332 4.617752 -0.45098877 6.7983856 -0.9110718m58.68335 9.972839c-1.640152 -1.3038025 -3.013382 -2.6970215 -4.0962677 -4.155945m78.17192 -1.6981201l0 0c0.8461914 -1.485199 1.3944702 -3.0137634 1.6356506 -4.560211m52.639038 -11.227478c0.10971069 -7.2414246 -7.649414 -13.871796 -19.94458 -17.04309m47.0206 -18.16983c-1.9911804 2.4658508 -5.0309143 4.6532593 -8.880859 6.390747m-12.588562 -29.9982l0 0c0.33926392 0.99575806 0.49627686 2.0065002 0.46887207 3.0181885m-52.516907 -10.410461l0 0c-1.8600159 1.1601868 -3.3924255 2.456665 -4.54953 3.8490906m-40.70186 -1.5776672l0 0c-0.99124146 1.053772 -1.73143 2.1688843 -2.2035217 3.31958m-49.63594 0.9079895l0 0c2.8941193 0.898468 5.571579 1.9799194 7.9735565 3.2205505m-69.95885 18.676758l0 0c0.29447937 1.1471558 0.7597656 2.2801514 1.3915176 3.3883972" fill-rule="nonzero"></path><path fill="#000000" d="m188.74522 445.71814l0 -13.59375l1.84375 0l7.140625 10.671875l0 -10.671875l1.71875 0l0 13.59375l-1.84375 0l-7.140625 -10.6875l0 10.6875l-1.71875 0zm20.019821 -3.171875l1.71875 0.21875q-0.40625 1.5 -1.515625 2.34375q-1.09375 0.828125 -2.8125 0.828125q-2.15625 0 -3.421875 -1.328125q-1.265625 -1.328125 -1.265625 -3.734375q0 -2.484375 1.265625 -3.859375q1.28125 -1.375 3.328125 -1.375q1.984375 0 3.234375 1.34375q1.25 1.34375 1.25 3.796875q0 0.140625 -0.015625 0.4375l-7.34375 0q0.09375 1.625 0.921875 2.484375q0.828125 0.859375 2.0625 0.859375q0.90625 0 1.546875 -0.46875q0.65625 -0.484375 1.046875 -1.546875zm-5.484375 -2.703125l5.5 0q-0.109375 -1.234375 -0.625 -1.859375q-0.796875 -0.96875 -2.078125 -0.96875q-1.140625 0 -1.9375 0.78125q-0.78125 0.765625 -0.859375 2.046875zm12.766342 4.375l0.234375 1.484375q-0.703125 0.140625 -1.265625 0.140625q-0.90625 0 -1.40625 -0.28125q-0.5 -0.296875 -0.703125 -0.75q-0.203125 -0.46875 -0.203125 -1.984375l0 -5.65625l-1.234375 0l0 -1.3125l1.234375 0l0 -2.4375l1.65625 -1.0l0 3.4375l1.6875 0l0 1.3125l-1.6875 0l0 5.75q0 0.71875 0.078125 0.921875q0.09375 0.203125 0.296875 0.328125q0.203125 0.125 0.578125 0.125q0.265625 0 0.734375 -0.078125zm3.3551788 1.5l-3.015625 -9.859375l1.71875 0l1.5625 5.6875l0.59375 2.125q0.03125 -0.15625 0.5 -2.03125l1.578125 -5.78125l1.71875 0l1.46875 5.71875l0.484375 1.890625l0.578125 -1.90625l1.6875 -5.703125l1.625 0l-3.078125 9.859375l-1.734375 0l-1.578125 -5.90625l-0.375 -1.671875l-2.0 7.578125l-1.734375 0zm11.019821 -4.921875q0 -2.734375 1.53125 -4.0625q1.265625 -1.09375 3.09375 -1.09375q2.03125 0 3.3125 1.34375q1.296875 1.328125 1.296875 3.671875q0 1.90625 -0.578125 3.0q-0.5625 1.078125 -1.65625 1.6875q-1.078125 0.59375 -2.375 0.59375q-2.0625 0 -3.34375 -1.328125q-1.28125 -1.328125 -1.28125 -3.8125zm1.71875 0q0 1.890625 0.828125 2.828125q0.828125 0.9375 2.078125 0.9375q1.25 0 2.0625 -0.9375q0.828125 -0.953125 0.828125 -2.890625q0 -1.828125 -0.828125 -2.765625q-0.828125 -0.9375 -2.0625 -0.9375q-1.25 0 -2.078125 0.9375q-0.828125 0.9375 -0.828125 2.828125zm9.266342 4.921875l0 -9.859375l1.5 0l0 1.5q0.578125 -1.046875 1.0625 -1.375q0.484375 -0.34375 1.078125 -0.34375q0.84375 0 1.71875 0.546875l-0.578125 1.546875q-0.609375 -0.359375 -1.234375 -0.359375q-0.546875 0 -0.984375 0.328125q-0.421875 0.328125 -0.609375 0.90625q-0.28125 0.890625 -0.28125 1.953125l0 5.15625l-1.671875 0zm6.243927 0l0 -13.59375l1.671875 0l0 7.75l3.953125 -4.015625l2.15625 0l-3.765625 3.65625l4.140625 6.203125l-2.0625 0l-3.25 -5.03125l-1.171875 1.125l0 3.90625l-1.671875 0z" fill-rule="nonzero"></path><path fill="#b6d7a8" d="m109.58662 64.19701l0 0c0 -4.212528 3.4149246 -7.627453 7.627449 -7.627453l296.4301 0c2.0229492 0 3.9630127 0.8036041 5.3934326 2.2340279c1.4304199 1.4304237 2.2340393 3.3704948 2.2340393 5.393425l0 30.50888c0 4.2125244 -3.4149475 7.627449 -7.627472 7.627449l-296.4301 0c-4.2125244 0 -7.627449 -3.4149246 -7.627449 -7.627449z" fill-rule="nonzero"></path><path stroke="#000000" stroke-width="2.0" stroke-linejoin="round" stroke-linecap="butt" d="m109.58662 64.19701l0 0c0 -4.212528 3.4149246 -7.627453 7.627449 -7.627453l296.4301 0c2.0229492 0 3.9630127 0.8036041 5.3934326 2.2340279c1.4304199 1.4304237 2.2340393 3.3704948 2.2340393 5.393425l0 30.50888c0 4.2125244 -3.4149475 7.627449 -7.627472 7.627449l-296.4301 0c-4.2125244 0 -7.627449 -3.4149246 -7.627449 -7.627449z" fill-rule="nonzero"></path><path fill="#000000" d="m378.4581 81.6912l0 -1.609375l5.765625 0l0 5.046875q-1.328125 1.0625 -2.75 1.59375q-1.40625 0.53125 -2.890625 0.53125q-2.0 0 -3.640625 -0.859375q-1.625 -0.859375 -2.46875 -2.484375q-0.828125 -1.625 -0.828125 -3.625q0 -1.984375 0.828125 -3.703125q0.828125 -1.71875 2.390625 -2.546875q1.5625 -0.84375 3.59375 -0.84375q1.46875 0 2.65625 0.484375q1.203125 0.46875 1.875 1.328125q0.671875 0.84375 1.03125 2.21875l-1.625 0.4375q-0.3125 -1.03125 -0.765625 -1.625q-0.453125 -0.59375 -1.296875 -0.953125q-0.84375 -0.359375 -1.875 -0.359375q-1.234375 0 -2.140625 0.375q-0.890625 0.375 -1.453125 1.0q-0.546875 0.609375 -0.84375 1.34375q-0.53125 1.25 -0.53125 2.734375q0 1.8125 0.625 3.046875q0.640625 1.21875 1.828125 1.8125q1.203125 0.59375 2.546875 0.59375q1.171875 0 2.28125 -0.453125q1.109375 -0.453125 1.6875 -0.953125l0 -2.53125l-4.0 0zm14.370819 4.109375q-0.9375 0.796875 -1.796875 1.125q-0.859375 0.3125 -1.84375 0.3125q-1.609375 0 -2.484375 -0.78125q-0.875 -0.796875 -0.875 -2.03125q0 -0.734375 0.328125 -1.328125q0.328125 -0.59375 0.859375 -0.953125q0.53125 -0.359375 1.203125 -0.546875q0.5 -0.140625 1.484375 -0.25q2.03125 -0.25 2.984375 -0.578125q0 -0.34375 0 -0.4375q0 -1.015625 -0.46875 -1.4375q-0.640625 -0.5625 -1.90625 -0.5625q-1.171875 0 -1.734375 0.40625q-0.5625 0.40625 -0.828125 1.46875l-1.640625 -0.234375q0.234375 -1.046875 0.734375 -1.6875q0.515625 -0.640625 1.46875 -0.984375q0.96875 -0.359375 2.25 -0.359375q1.265625 0 2.046875 0.296875q0.78125 0.296875 1.15625 0.75q0.375 0.453125 0.515625 1.140625q0.09375 0.421875 0.09375 1.53125l0 2.234375q0 2.328125 0.09375 2.953125q0.109375 0.609375 0.4375 1.171875l-1.75 0q-0.265625 -0.515625 -0.328125 -1.21875zm-0.140625 -3.71875q-0.90625 0.359375 -2.734375 0.625q-1.03125 0.140625 -1.453125 0.328125q-0.421875 0.1875 -0.65625 0.546875q-0.234375 0.359375 -0.234375 0.796875q0 0.671875 0.5 1.125q0.515625 0.4375 1.484375 0.4375q0.96875 0 1.71875 -0.421875q0.75 -0.4375 1.109375 -1.15625q0.265625 -0.578125 0.265625 -1.671875l0 -0.609375zm4.094452 -6.75l0 -1.90625l1.671875 0l0 1.90625l-1.671875 0zm0 11.6875l0 -9.859375l1.671875 0l0 9.859375l-1.671875 0zm10.566681 -1.21875q-0.9375 0.796875 -1.796875 1.125q-0.859375 0.3125 -1.84375 0.3125q-1.609375 0 -2.484375 -0.78125q-0.875 -0.796875 -0.875 -2.03125q0 -0.734375 0.328125 -1.328125q0.328125 -0.59375 0.859375 -0.953125q0.53125 -0.359375 1.203125 -0.546875q0.5 -0.140625 1.484375 -0.25q2.03125 -0.25 2.984375 -0.578125q0 -0.34375 0 -0.4375q0 -1.015625 -0.46875 -1.4375q-0.640625 -0.5625 -1.90625 -0.5625q-1.171875 0 -1.734375 0.40625q-0.5625 0.40625 -0.828125 1.46875l-1.640625 -0.234375q0.234375 -1.046875 0.734375 -1.6875q0.515625 -0.640625 1.46875 -0.984375q0.96875 -0.359375 2.25 -0.359375q1.265625 0 2.046875 0.296875q0.78125 0.296875 1.15625 0.75q0.375 0.453125 0.515625 1.140625q0.09375 0.421875 0.09375 1.53125l0 2.234375q0 2.328125 0.09375 2.953125q0.109375 0.609375 0.4375 1.171875l-1.75 0q-0.265625 -0.515625 -0.328125 -1.21875zm-0.140625 -3.71875q-0.90625 0.359375 -2.734375 0.625q-1.03125 0.140625 -1.453125 0.328125q-0.421875 0.1875 -0.65625 0.546875q-0.234375 0.359375 -0.234375 0.796875q0 0.671875 0.5 1.125q0.515625 0.4375 1.484375 0.4375q0.96875 0 1.71875 -0.421875q0.75 -0.4375 1.109375 -1.15625q0.265625 -0.578125 0.265625 -1.671875l0 -0.609375z" fill-rule="nonzero"></path></g></svg>

